<svg width="437" height="455" viewBox="0 0 437 455" fill="none" xmlns="http://www.w3.org/2000/svg">
<path d="M269.442 177.992L144.21 116.863L162.267 279.464L269.442 177.992ZM268.568 178.128L162.649 278.411L144.803 117.716L268.568 178.128Z" fill="black"/>
<path d="M319.768 311.134L269.442 177.992L162.268 279.464L319.768 311.134ZM318.982 310.457L163.322 279.158L269.243 178.871L318.982 310.457Z" fill="black"/>
<path d="M204.971 407.45L162.267 279.464L88.8252 352.637L204.971 407.45ZM204.129 406.492L89.6892 352.485L162.052 280.387L204.129 406.492Z" fill="black"/>
<path d="M319.768 311.133L162.268 279.464L204.972 407.45L319.768 311.133ZM318.638 311.424L205.209 406.594L163.014 280.133L318.638 311.424Z" fill="black"/>
<path d="M162.267 279.464L42.1182 225.03L88.8259 352.637L162.267 279.464ZM161.395 279.624L89.0233 351.731L42.9969 225.983L161.395 279.624Z" fill="black"/>
<path d="M88.8257 352.637L42.1179 225.03L30.4785 315.245L88.8257 352.637ZM87.848 351.411L31.0116 314.988L42.3498 227.107L87.848 351.411Z" fill="black"/>
<path d="M162.267 279.464L144.21 116.863L42.1182 225.03L162.267 279.464ZM161.678 278.642L42.969 224.859L143.836 117.989L161.678 278.642Z" fill="black"/>
<path d="M281.589 60.6542L144.21 116.863L269.442 177.992L281.589 60.6542ZM281.01 61.4388L269.024 177.225L145.447 116.904L281.01 61.4388Z" fill="black"/>
<path d="M385.57 174.188L281.589 60.6542L269.442 177.992L385.57 174.188ZM384.458 173.716L269.994 177.465L281.967 61.8097L384.458 173.716Z" fill="black"/>
<path d="M411.871 302.485L385.57 174.189L319.768 311.134L411.871 302.485ZM411.272 302.031L320.603 310.544L385.381 175.732L411.272 302.031Z" fill="black"/>
<path d="M385.57 174.189L269.442 177.992L319.767 311.134L385.57 174.189ZM384.761 174.724L319.823 309.871L270.156 178.477L384.761 174.724Z" fill="black"/>
<path d="M385.57 174.188L373.184 79.1263L281.589 60.6542L385.57 174.188ZM384.875 172.688L283.005 61.4582L372.74 79.555L384.875 172.688Z" fill="black"/>
<path d="M426.433 188.835L373.184 79.1262L385.571 174.188L426.433 188.835ZM425.447 187.943L386.02 173.811L374.07 82.091L425.447 187.943Z" fill="black"/>
<path d="M426.433 188.835L385.57 174.188L411.871 302.485L426.433 188.835ZM425.889 189.179L411.759 299.467L386.236 174.966L425.889 189.179Z" fill="black"/>
<path d="M411.871 302.485L319.768 311.133L328.767 398.625L411.871 302.485ZM410.671 303.108L329.141 397.426L320.313 311.593L410.671 303.108Z" fill="black"/>
<path d="M411.87 302.485L328.767 398.625L360.157 380.456L411.87 302.485ZM407.113 308.755L359.813 380.072L331.101 396.69L407.113 308.755Z" fill="black"/>
<path d="M328.767 398.625L319.768 311.133L204.973 407.45L328.767 398.625ZM328.221 398.155L206.492 406.832L319.373 312.123L328.221 398.155Z" fill="black"/>
<path d="M328.767 398.625L204.973 407.45L248.354 438.298L328.767 398.625ZM326.223 399.316L248.399 437.712L206.415 407.857L326.223 399.316Z" fill="black"/>
<path d="M248.353 438.298L204.972 407.45L119.92 415.92L248.353 438.298ZM246.24 437.415L123.669 416.057L204.839 407.974L246.24 437.415Z" fill="black"/>
<path d="M204.971 407.45L88.8252 352.637L119.92 415.92L204.971 407.45ZM203.099 407.125L120.209 415.381L89.9059 353.707L203.099 407.125Z" fill="black"/>
<path d="M119.92 415.92L88.8257 352.637L30.4785 315.245L119.92 415.92ZM117.85 412.834L33.2719 317.634L88.4452 352.994L117.85 412.834Z" fill="black"/>
<path d="M42.1188 225.03L16.5625 182.564L30.4794 315.245L42.1188 225.03ZM41.6053 225.143L30.5301 310.98L17.2889 184.738L41.6053 225.143Z" fill="black"/>
<path d="M60.019 102.928L16.5625 182.564L42.1196 225.03L60.019 102.928ZM59.1263 105.606L41.8305 223.583L17.1374 182.551L59.1263 105.606Z" fill="black"/>
<path d="M144.21 116.863L60.0185 102.928L42.1191 225.03L144.21 116.863ZM143.193 117.211L42.8382 223.536L60.4337 103.513L143.193 117.211Z" fill="black"/>
<path d="M160.533 25.0312L60.0186 102.928L144.21 116.863L160.533 25.0312ZM159.818 26.2229L143.81 116.282L61.2437 102.616L159.818 26.2229Z" fill="black"/>
<path d="M160.533 25.0312L82.3957 73.1711L60.0186 102.928L160.533 25.0312ZM152.791 30.3942L62.667 100.239L82.7304 73.5576L152.791 30.3942Z" fill="black"/>
<path d="M281.589 60.654L160.533 25.0312L144.21 116.863L281.589 60.654ZM280.058 60.7322L144.858 116.051L160.922 25.6746L280.058 60.7322Z" fill="black"/>
<path d="M281.589 60.654L272.476 17.0184L160.533 25.0312L281.589 60.654ZM280.932 59.9316L163.373 25.3382L272.082 17.5566L280.932 59.9316Z" fill="black"/>
<path d="M373.184 79.1262L272.476 17.0184L281.59 60.654L373.184 79.1262ZM370.507 78.0682L282.004 60.2192L273.199 18.0579L370.507 78.0682Z" fill="black"/>
<path d="M168.192 279.005C168.44 282.365 165.987 285.295 162.715 285.549C159.442 285.803 156.589 283.285 156.342 279.924C156.096 276.563 158.547 273.634 161.819 273.38C165.092 273.126 167.945 275.645 168.192 279.005Z" fill="black"/>
<path d="M150.135 116.404C150.382 119.764 147.929 122.695 144.657 122.948C141.385 123.202 138.532 120.684 138.285 117.323C138.037 113.963 140.489 111.032 143.762 110.779C147.034 110.525 149.887 113.043 150.135 116.404Z" fill="black"/>
<path d="M275.367 177.532C275.614 180.892 273.162 183.822 269.889 184.076C266.618 184.33 263.765 181.811 263.517 178.45C263.27 175.091 265.722 172.16 268.994 171.907C272.267 171.653 275.12 174.171 275.367 177.532Z" fill="#05A9BD"/>
<path d="M325.694 310.674C325.94 314.034 323.488 316.964 320.216 317.218C316.943 317.472 314.09 314.953 313.842 311.593C313.595 308.233 316.048 305.303 319.32 305.048C322.593 304.795 325.446 307.313 325.694 310.674Z" fill="black"/>
<path d="M210.897 406.99C211.144 410.351 208.691 413.281 205.42 413.534C202.147 413.788 199.293 411.27 199.046 407.909C198.8 404.549 201.252 401.618 204.524 401.365C207.796 401.112 210.649 403.629 210.897 406.99Z" fill="#05A9BD"/>
<path d="M94.7508 352.178C94.9982 355.538 92.5465 358.468 89.2736 358.722C86.0015 358.975 83.1485 356.458 82.901 353.098C82.6535 349.737 85.106 346.807 88.3789 346.553C91.651 346.299 94.504 348.817 94.7508 352.178Z" fill="black"/>
<path d="M210.897 406.99C211.144 410.351 208.691 413.281 205.42 413.534C202.147 413.788 199.293 411.27 199.046 407.909C198.8 404.549 201.252 401.618 204.524 401.365C207.796 401.112 210.649 403.629 210.897 406.99Z" fill="black"/>
<path d="M325.694 310.674C325.94 314.034 323.488 316.964 320.216 317.218C316.943 317.472 314.09 314.953 313.842 311.593C313.595 308.233 316.048 305.303 319.32 305.048C322.593 304.795 325.446 307.313 325.694 310.674Z" fill="#05A9BD"/>
<path d="M48.0446 224.569C48.292 227.93 45.8393 230.86 42.5668 231.114C39.2943 231.368 36.4413 228.85 36.1939 225.489C35.9466 222.128 38.3993 219.198 41.6717 218.945C44.9442 218.692 47.7973 221.209 48.0446 224.569Z" fill="black"/>
<path d="M94.7508 352.178C94.9982 355.538 92.5465 358.468 89.2736 358.722C86.0015 358.975 83.1485 356.458 82.901 353.098C82.6535 349.737 85.106 346.807 88.3789 346.553C91.651 346.299 94.504 348.817 94.7508 352.178Z" fill="black"/>
<path d="M94.7508 352.178C94.9982 355.538 92.5465 358.468 89.2736 358.722C86.0015 358.975 83.1485 356.458 82.901 353.098C82.6535 349.737 85.106 346.807 88.3789 346.553C91.651 346.299 94.504 348.817 94.7508 352.178Z" fill="black"/>
<path d="M36.4041 314.786C36.6515 318.146 34.1996 321.076 30.9272 321.331C27.6547 321.584 24.8015 319.066 24.5543 315.705C24.307 312.344 26.7597 309.415 30.0321 309.161C33.3045 308.907 36.1577 311.426 36.4041 314.786Z" fill="#05A9BD"/>
<path d="M287.515 60.1941C287.761 63.5547 285.309 66.4846 282.037 66.7386C278.764 66.9926 275.911 64.4739 275.663 61.1142C275.417 57.7537 277.869 54.8237 281.141 54.5698C284.414 54.3158 287.267 56.8336 287.515 60.1941Z" fill="black"/>
<path d="M287.515 60.1941C287.761 63.5547 285.309 66.4846 282.037 66.7386C278.764 66.9926 275.911 64.4739 275.663 61.1142C275.417 57.7537 277.869 54.8237 281.141 54.5698C284.414 54.3158 287.267 56.8336 287.515 60.1941Z" fill="#05A9BD"/>
<path d="M391.496 173.728C391.743 177.089 389.292 180.019 386.019 180.273C382.747 180.527 379.893 178.009 379.646 174.648C379.399 171.287 381.85 168.357 385.123 168.104C388.395 167.851 391.248 170.368 391.496 173.728Z" fill="black"/>
<path d="M417.796 302.025C418.043 305.385 415.591 308.316 412.319 308.569C409.046 308.823 406.193 306.305 405.946 302.945C405.698 299.585 408.152 296.654 411.424 296.4C414.695 296.147 417.548 298.665 417.796 302.025Z" fill="black"/>
<path d="M379.109 78.6669C379.356 82.0276 376.904 84.9574 373.631 85.2112C370.359 85.4649 367.506 82.9471 367.258 79.5864C367.011 76.2256 369.463 73.2959 372.736 73.0421C376.008 72.7878 378.861 75.3062 379.109 78.6669Z" fill="#05A9BD"/>
<path d="M287.515 60.1941C287.761 63.5547 285.309 66.4846 282.037 66.7386C278.764 66.9926 275.911 64.4739 275.663 61.1142C275.417 57.7537 277.869 54.8237 281.141 54.5698C284.414 54.3158 287.267 56.8336 287.515 60.1941Z" fill="#05A9BD"/>
<path d="M432.358 188.376C432.605 191.737 430.152 194.666 426.881 194.92C423.607 195.175 420.754 192.655 420.507 189.295C420.261 185.935 422.713 183.005 425.985 182.75C429.257 182.497 432.11 185.015 432.358 188.376Z" fill="black"/>
<path d="M432.358 188.376C432.605 191.737 430.152 194.666 426.881 194.92C423.607 195.175 420.754 192.655 420.507 189.295C420.261 185.935 422.713 183.005 425.985 182.75C429.257 182.497 432.11 185.015 432.358 188.376Z" fill="black"/>
<path d="M334.691 398.166C334.939 401.526 332.487 404.456 329.215 404.71C325.942 404.964 323.089 402.445 322.841 399.085C322.595 395.725 325.047 392.794 328.319 392.54C331.591 392.287 334.444 394.805 334.691 398.166Z" fill="black"/>
<path d="M366.082 379.996C366.329 383.356 363.877 386.286 360.605 386.54C357.333 386.794 354.48 384.275 354.232 380.914C353.985 377.554 356.437 374.624 359.709 374.371C362.981 374.117 365.834 376.635 366.082 379.996Z" fill="#05A9BD"/>
<path d="M210.897 406.99C211.144 410.351 208.691 413.281 205.42 413.534C202.147 413.788 199.293 411.27 199.046 407.909C198.8 404.549 201.252 401.618 204.524 401.365C207.796 401.112 210.649 403.629 210.897 406.99Z" fill="black"/>
<path d="M210.897 406.99C211.144 410.351 208.691 413.281 205.42 413.534C202.147 413.788 199.293 411.27 199.046 407.909C198.8 404.549 201.252 401.618 204.524 401.365C207.796 401.112 210.649 403.629 210.897 406.99Z" fill="#05A9BD"/>
<path d="M254.278 437.84C254.526 441.2 252.072 444.13 248.801 444.384C245.529 444.637 242.675 442.119 242.428 438.759C242.181 435.398 244.633 432.468 247.905 432.214C251.178 431.961 254.031 434.479 254.278 437.84Z" fill="black"/>
<path d="M210.897 406.99C211.144 410.351 208.691 413.281 205.42 413.534C202.147 413.788 199.293 411.27 199.046 407.909C198.8 404.549 201.252 401.618 204.524 401.365C207.796 401.112 210.649 403.629 210.897 406.99Z" fill="#05A9BD"/>
<path d="M125.845 415.46C126.093 418.821 123.64 421.751 120.367 422.004C117.095 422.259 114.242 419.74 113.995 416.38C113.748 413.019 116.2 410.089 119.473 409.835C122.745 409.582 125.598 412.099 125.845 415.46Z" fill="black"/>
<path d="M210.897 406.99C211.144 410.351 208.691 413.281 205.42 413.534C202.147 413.788 199.293 411.27 199.046 407.909C198.8 404.549 201.252 401.618 204.524 401.365C207.796 401.112 210.649 403.629 210.897 406.99Z" fill="black"/>
<path d="M94.7508 352.178C94.9982 355.538 92.5465 358.468 89.2736 358.722C86.0015 358.975 83.1485 356.458 82.901 353.098C82.6535 349.737 85.106 346.807 88.3789 346.553C91.651 346.299 94.504 348.817 94.7508 352.178Z" fill="black"/>
<path d="M94.7508 352.178C94.9982 355.538 92.5465 358.468 89.2736 358.722C86.0015 358.975 83.1485 356.458 82.901 353.098C82.6535 349.737 85.106 346.807 88.3789 346.553C91.651 346.299 94.504 348.817 94.7508 352.178Z" fill="black"/>
<path d="M22.488 182.105C22.7345 185.465 20.2827 188.395 17.0102 188.649C13.7378 188.902 10.8846 186.384 10.6373 183.024C10.39 179.664 12.8427 176.733 16.1151 176.479C19.3867 176.226 22.2399 178.744 22.488 182.105Z" fill="#05A9BD"/>
<path d="M65.9441 102.469C66.1906 105.83 63.7387 108.76 60.4663 109.013C57.1938 109.267 54.3407 106.749 54.0933 103.388C53.846 100.028 56.2987 97.098 59.5712 96.8435C62.8437 96.5898 65.6967 99.1083 65.9441 102.469Z" fill="black"/>
<path d="M65.9441 102.469C66.1906 105.83 63.7387 108.76 60.4663 109.013C57.1938 109.267 54.3407 106.749 54.0933 103.388C53.846 100.028 56.2987 97.098 59.5712 96.8435C62.8437 96.5898 65.6967 99.1083 65.9441 102.469Z" fill="black"/>
<path d="M166.458 24.5721C166.705 27.9326 164.252 30.8626 160.98 31.1158C157.708 31.3697 154.854 28.8518 154.607 25.4913C154.36 22.1307 156.812 19.2008 160.085 18.9468C163.357 18.6929 166.21 21.2116 166.458 24.5721Z" fill="black"/>
<path d="M65.9441 102.469C66.1906 105.83 63.7387 108.76 60.4663 109.013C57.1938 109.267 54.3407 106.749 54.0933 103.388C53.846 100.028 56.2987 97.098 59.5712 96.8435C62.8437 96.5898 65.6967 99.1083 65.9441 102.469Z" fill="black"/>
<path d="M60.0118 109.031C59.8832 109.031 59.7538 109.027 59.6269 109.018C59.4606 109.007 59.296 108.989 59.1339 108.964C58.9693 108.938 58.8071 108.907 58.6474 108.868C58.2691 108.776 57.903 108.646 57.555 108.483C57.4051 108.412 57.2569 108.336 57.1136 108.252C55.4372 107.286 54.249 105.504 54.0934 103.388C54.0819 103.231 54.0762 103.074 54.0762 102.919C54.0778 99.7588 56.4519 97.0856 59.5712 96.8436C59.7235 96.8319 59.875 96.826 60.0249 96.826C63.1033 96.826 65.7082 99.2651 65.944 102.469C65.9556 102.627 65.9613 102.783 65.9605 102.938C65.9605 103.091 65.9547 103.243 65.944 103.394C65.9318 103.565 65.9121 103.733 65.886 103.9C65.8597 104.068 65.827 104.234 65.7868 104.398C65.1866 106.885 63.0901 108.809 60.4662 109.013C60.314 109.025 60.1624 109.031 60.0118 109.031Z" fill="#05A9BD"/>
<path d="M88.3201 72.7113C88.5676 76.0717 86.1158 79.0015 82.8429 79.256C79.5708 79.5097 76.7178 76.9912 76.4703 73.6305C76.2229 70.2708 78.6761 67.3408 81.9482 67.0869C85.2196 66.8329 88.0741 69.3507 88.3201 72.7113Z" fill="#05A9BD"/>
<path d="M287.515 60.1941C287.761 63.5547 285.309 66.4846 282.037 66.7386C278.764 66.9926 275.911 64.4739 275.663 61.1142C275.417 57.7537 277.869 54.8237 281.141 54.5698C284.414 54.3158 287.267 56.8336 287.515 60.1941Z" fill="black"/>
<path d="M287.515 60.1941C287.761 63.5547 285.309 66.4846 282.037 66.7386C278.764 66.9926 275.911 64.4739 275.663 61.1142C275.417 57.7537 277.869 54.8237 281.141 54.5698C284.414 54.3158 287.267 56.8336 287.515 60.1941Z" fill="#05A9BD"/>
<path d="M278.4 16.5596C278.648 19.9201 276.196 22.85 272.923 23.104C269.651 23.3571 266.798 20.8393 266.55 17.4788C266.303 14.1182 268.755 11.1882 272.028 10.9343C275.3 10.6803 278.153 13.199 278.4 16.5596Z" fill="black"/>
<path d="M281.584 66.7563C281.541 66.7563 281.498 66.7555 281.456 66.7547C281.289 66.7513 281.124 66.7404 280.961 66.7227C280.796 66.7051 280.632 66.6806 280.471 66.6487C278.479 66.2585 276.814 64.8389 276.068 62.9131C276.007 62.7558 275.952 62.5961 275.904 62.4329C275.78 62.0124 275.697 61.5709 275.664 61.1143C275.652 60.9562 275.646 60.7997 275.646 60.6442C275.649 57.4846 278.022 54.8111 281.142 54.5698C281.294 54.558 281.445 54.5521 281.596 54.5521C284.675 54.5521 287.279 56.9901 287.515 60.1942C287.526 60.3523 287.532 60.5088 287.532 60.6644C287.532 60.8881 287.52 61.1092 287.496 61.327C287.478 61.4969 287.453 61.6643 287.421 61.8299C287.39 61.9973 287.351 62.1629 287.306 62.3253C287.055 63.2276 286.607 64.0509 286.007 64.7354C285.896 64.8616 285.781 64.9827 285.66 65.0988C285.54 65.2157 285.416 65.3267 285.286 65.4326C284.386 66.1677 283.27 66.6428 282.037 66.7387C281.885 66.7504 281.733 66.7563 281.584 66.7563Z" fill="#05A9BD"/>
<path d="M180.744 301.817L105.777 149.598L44.1191 293.274L180.744 301.817ZM180.398 301.583L44.427 293.081L105.79 150.094L180.398 301.583Z" fill="#05A9BD"/>
<path d="M432.831 231.532L407.001 115.033L361.897 115.907L432.831 231.532ZM432.36 230.368L362.268 116.112L406.838 115.248L432.36 230.368Z" fill="#05A9BD"/>
<path d="M251.061 166.481C249.078 167.236 246.874 166.196 246.14 164.159C245.405 162.123 246.417 159.86 248.401 159.105C250.384 158.351 252.588 159.39 253.323 161.427C254.057 163.464 253.045 165.727 251.061 166.481Z" fill="#05A9BD"/>
<path d="M347.185 277.91C345.202 278.664 342.997 277.625 342.263 275.588C341.528 273.551 342.541 271.288 344.524 270.534C346.508 269.779 348.711 270.82 349.446 272.856C350.18 274.894 349.168 277.155 347.185 277.91Z" fill="#05A9BD"/>
<path d="M268.931 414.727C266.947 415.481 264.744 414.442 264.01 412.405C263.275 410.368 264.287 408.105 266.271 407.351C268.255 406.596 270.458 407.637 271.193 409.674C271.927 411.71 270.915 413.973 268.931 414.727Z" fill="#05A9BD"/>
<path d="M268.931 414.727C266.947 415.481 264.744 414.442 264.01 412.405C263.275 410.368 264.287 408.105 266.271 407.351C268.255 406.596 270.458 407.637 271.193 409.674C271.927 411.71 270.915 413.973 268.931 414.727Z" fill="#05A9BD"/>
<path d="M182.074 305.505C180.091 306.259 177.888 305.219 177.154 303.182C176.419 301.145 177.431 298.883 179.414 298.129C181.398 297.375 183.601 298.414 184.336 300.451C185.07 302.488 184.058 304.751 182.074 305.505Z" fill="#05A9BD"/>
<path d="M65.8733 389.468C63.8898 390.223 61.687 389.183 60.9524 387.147C60.2177 385.109 61.23 382.847 63.2135 382.092C65.1969 381.338 67.3998 382.377 68.1352 384.414C68.8689 386.451 67.8567 388.714 65.8733 389.468Z" fill="#05A9BD"/>
<path d="M347.185 277.91C345.202 278.664 342.997 277.625 342.263 275.588C341.528 273.551 342.541 271.288 344.524 270.534C346.508 269.779 348.711 270.82 349.446 272.856C350.18 274.894 349.168 277.155 347.185 277.91Z" fill="#05A9BD"/>
<path d="M434.161 235.219C432.177 235.973 429.973 234.934 429.238 232.897C428.504 230.86 429.516 228.597 431.5 227.843C433.483 227.088 435.687 228.129 436.421 230.165C437.156 232.202 436.144 234.464 434.161 235.219Z" fill="#05A9BD"/>
<path d="M188.785 454.623C186.801 455.377 184.597 454.338 183.862 452.301C183.128 450.264 184.14 448.001 186.123 447.247C188.107 446.492 190.311 447.533 191.045 449.569C191.78 451.606 190.768 453.868 188.785 454.623Z" fill="#05A9BD"/>
<path d="M188.785 454.623C186.801 455.377 184.597 454.338 183.862 452.301C183.128 450.264 184.14 448.001 186.123 447.247C188.107 446.492 190.311 447.533 191.045 449.569C191.78 451.606 190.768 453.868 188.785 454.623Z" fill="#05A9BD"/>
<path d="M221.572 47.276C219.588 48.0304 217.385 46.991 216.65 44.9541C215.916 42.9173 216.929 40.6542 218.912 39.8998C220.895 39.1455 223.099 40.1858 223.833 42.2227C224.568 44.2594 223.555 46.5217 221.572 47.276Z" fill="#05A9BD"/>
</svg>
