<svg width="206" height="69" viewBox="0 0 206 69" fill="none" xmlns="http://www.w3.org/2000/svg">
<path d="M68.1194 45.3201C66.0927 45.3201 64.266 44.8667 62.6394 43.9601C61.0127 43.0267 59.7194 41.7334 58.7594 40.0801C57.826 38.4267 57.3594 36.4801 57.3594 34.2401C57.3594 31.9734 57.826 30.0134 58.7594 28.3601C59.7194 26.7067 61.0127 25.4267 62.6394 24.5201C64.266 23.6134 66.0927 23.1601 68.1194 23.1601C69.9327 23.1601 71.5194 23.5601 72.8794 24.3601C74.2394 25.1601 75.2927 26.3734 76.0394 28.0001C76.786 29.6267 77.1594 31.7067 77.1594 34.2401C77.1594 36.7467 76.7994 38.8267 76.0794 40.4801C75.3594 42.1067 74.3194 43.3201 72.9594 44.1201C71.626 44.9201 70.0127 45.3201 68.1194 45.3201ZM69.1994 40.2001C70.2127 40.2001 71.1327 39.9601 71.9594 39.4801C72.786 39.0001 73.4394 38.3201 73.9194 37.4401C74.426 36.5334 74.6794 35.4667 74.6794 34.2401C74.6794 32.9867 74.426 31.9201 73.9194 31.0401C73.4394 30.1601 72.786 29.4801 71.9594 29.0001C71.1327 28.5201 70.2127 28.2801 69.1994 28.2801C68.1594 28.2801 67.226 28.5201 66.3994 29.0001C65.5727 29.4801 64.906 30.1601 64.3994 31.0401C63.9194 31.9201 63.6794 32.9867 63.6794 34.2401C63.6794 35.4667 63.9194 36.5334 64.3994 37.4401C64.906 38.3201 65.5727 39.0001 66.3994 39.4801C67.226 39.9601 68.1594 40.2001 69.1994 40.2001ZM74.8394 45.0001V40.6001L74.9594 34.2001L74.5594 27.8401V15.3201H80.7994V45.0001H74.8394Z" fill="#2B2B2B"/>
<path d="M97.3747 45.0001V40.8001L96.9747 39.8801V32.3601C96.9747 31.0267 96.5614 29.9867 95.7347 29.2401C94.9347 28.4934 93.6947 28.1201 92.0147 28.1201C90.868 28.1201 89.7347 28.3067 88.6147 28.6801C87.5214 29.0267 86.588 29.5067 85.8147 30.1201L83.5747 25.7601C84.748 24.9334 86.1614 24.2934 87.8147 23.8401C89.468 23.3867 91.148 23.1601 92.8547 23.1601C96.1347 23.1601 98.6814 23.9334 100.495 25.4801C102.308 27.0267 103.215 29.4401 103.215 32.7201V45.0001H97.3747ZM90.8147 45.3201C89.1347 45.3201 87.6947 45.0401 86.4947 44.4801C85.2947 43.8934 84.3747 43.1067 83.7347 42.1201C83.0947 41.1334 82.7747 40.0267 82.7747 38.8001C82.7747 37.5201 83.0814 36.4001 83.6947 35.4401C84.3347 34.4801 85.3347 33.7334 86.6947 33.2001C88.0547 32.6401 89.828 32.3601 92.0147 32.3601H97.7347V36.0001H92.6947C91.228 36.0001 90.2147 36.2401 89.6547 36.7201C89.1214 37.2001 88.8547 37.8001 88.8547 38.5201C88.8547 39.3201 89.1614 39.9601 89.7747 40.4401C90.4147 40.8934 91.2814 41.1201 92.3747 41.1201C93.4147 41.1201 94.348 40.8801 95.1747 40.4001C96.0014 39.8934 96.6014 39.1601 96.9747 38.2001L97.9347 41.0801C97.4814 42.4667 96.6547 43.5201 95.4547 44.2401C94.2547 44.9601 92.708 45.3201 90.8147 45.3201Z" fill="#2B2B2B"/>
<path d="M115.262 45.3201C112.729 45.3201 110.756 44.6801 109.342 43.4001C107.929 42.0934 107.222 40.1601 107.222 37.6001V18.7201H113.462V37.5201C113.462 38.4267 113.702 39.1334 114.182 39.6401C114.662 40.1201 115.316 40.3601 116.142 40.3601C117.129 40.3601 117.969 40.0934 118.662 39.5601L120.342 43.9601C119.702 44.4134 118.929 44.7601 118.022 45.0001C117.142 45.2134 116.222 45.3201 115.262 45.3201ZM103.902 28.7601V23.9601H118.822V28.7601H103.902Z" fill="#2B2B2B"/>
<path d="M131.021 45.3201C128.728 45.3201 126.688 44.8401 124.901 43.8801C123.141 42.9201 121.741 41.6134 120.701 39.9601C119.688 38.2801 119.181 36.3734 119.181 34.2401C119.181 32.0801 119.688 30.1734 120.701 28.5201C121.741 26.8401 123.141 25.5334 124.901 24.6001C126.688 23.6401 128.728 23.1601 131.021 23.1601C133.288 23.1601 135.314 23.6401 137.101 24.6001C138.888 25.5334 140.288 26.8267 141.301 28.4801C142.314 30.1334 142.821 32.0534 142.821 34.2401C142.821 36.3734 142.314 38.2801 141.301 39.9601C140.288 41.6134 138.888 42.9201 137.101 43.8801C135.314 44.8401 133.288 45.3201 131.021 45.3201ZM131.021 40.2001C132.061 40.2001 132.994 39.9601 133.821 39.4801C134.648 39.0001 135.301 38.3201 135.781 37.4401C136.261 36.5334 136.501 35.4667 136.501 34.2401C136.501 32.9867 136.261 31.9201 135.781 31.0401C135.301 30.1601 134.648 29.4801 133.821 29.0001C132.994 28.5201 132.061 28.2801 131.021 28.2801C129.981 28.2801 129.048 28.5201 128.221 29.0001C127.394 29.4801 126.728 30.1601 126.221 31.0401C125.741 31.9201 125.501 32.9867 125.501 34.2401C125.501 35.4667 125.741 36.5334 126.221 37.4401C126.728 38.3201 127.394 39.0001 128.221 39.4801C129.048 39.9601 129.981 40.2001 131.021 40.2001Z" fill="#2B2B2B"/>
<path d="M172.152 23.1601C173.859 23.1601 175.365 23.5067 176.672 24.2001C178.005 24.8667 179.045 25.9067 179.792 27.3201C180.565 28.7067 180.952 30.4934 180.952 32.6801V45.0001H174.712V33.6401C174.712 31.9067 174.352 30.6267 173.632 29.8001C172.912 28.9734 171.899 28.5601 170.592 28.5601C169.685 28.5601 168.872 28.7734 168.152 29.2001C167.432 29.6001 166.872 30.2134 166.472 31.0401C166.072 31.8667 165.872 32.9201 165.872 34.2001V45.0001H159.632V33.6401C159.632 31.9067 159.272 30.6267 158.552 29.8001C157.859 28.9734 156.859 28.5601 155.552 28.5601C154.645 28.5601 153.832 28.7734 153.112 29.2001C152.392 29.6001 151.832 30.2134 151.432 31.0401C151.032 31.8667 150.832 32.9201 150.832 34.2001V45.0001H144.592V23.4801H150.552V29.3601L149.432 27.6401C150.179 26.1734 151.232 25.0667 152.592 24.3201C153.979 23.5467 155.552 23.1601 157.312 23.1601C159.285 23.1601 161.005 23.6667 162.472 24.6801C163.965 25.6667 164.952 27.1867 165.432 29.2401L163.232 28.6401C163.952 26.9601 165.099 25.6267 166.672 24.6401C168.272 23.6534 170.099 23.1601 172.152 23.1601Z" fill="#2B2B2B"/>
<path d="M194.981 45.3201C192.528 45.3201 190.368 44.8401 188.501 43.8801C186.661 42.9201 185.235 41.6134 184.221 39.9601C183.208 38.2801 182.701 36.3734 182.701 34.2401C182.701 32.0801 183.195 30.1734 184.181 28.5201C185.195 26.8401 186.568 25.5334 188.301 24.6001C190.035 23.6401 191.995 23.1601 194.181 23.1601C196.288 23.1601 198.181 23.6134 199.861 24.5201C201.568 25.4001 202.915 26.6801 203.901 28.3601C204.888 30.0134 205.381 32.0001 205.381 34.3201C205.381 34.5601 205.368 34.8401 205.341 35.1601C205.315 35.4534 205.288 35.7334 205.261 36.0001H187.781V32.3601H201.981L199.581 33.4401C199.581 32.3201 199.355 31.3467 198.901 30.5201C198.448 29.6934 197.821 29.0534 197.021 28.6001C196.221 28.1201 195.288 27.8801 194.221 27.8801C193.155 27.8801 192.208 28.1201 191.381 28.6001C190.581 29.0534 189.955 29.7067 189.501 30.5601C189.048 31.3867 188.821 32.3734 188.821 33.5201V34.4801C188.821 35.6534 189.075 36.6934 189.581 37.6001C190.115 38.4801 190.848 39.1601 191.781 39.6401C192.741 40.0934 193.861 40.3201 195.141 40.3201C196.288 40.3201 197.288 40.1467 198.141 39.8001C199.021 39.4534 199.821 38.9334 200.541 38.2401L203.861 41.8401C202.875 42.9601 201.635 43.8267 200.141 44.4401C198.648 45.0267 196.928 45.3201 194.981 45.3201Z" fill="#2B2B2B"/>
<path d="M9.25394 31.2708C10.5038 30.146 11.0037 28.5212 10.8787 26.8964L23.752 22.2721C24.2519 22.1471 24.5019 21.5222 24.3769 21.0222C24.2519 20.5223 23.627 20.2723 23.1271 20.3973L10.2538 25.0217C10.1288 24.7717 9.87885 24.5217 9.75385 24.2718C8.00411 22.2721 4.87954 22.1471 2.87979 23.8968C0.880083 25.6466 0.7551 28.7711 2.50488 30.7709C4.12962 32.8956 7.2542 33.1455 9.25394 31.2708Z" fill="#05A9BD"/>
<path d="M6.50399 6.02421C7.3789 5.3993 7.5039 4.14949 6.87898 3.3996C6.12907 2.6497 5.00424 2.52472 4.25433 3.14963C3.37942 3.77454 3.2545 4.89938 4.00433 5.77429C4.62925 6.52413 5.75415 6.64913 6.50399 6.02421Z" fill="#05A9BD"/>
<path d="M21.1266 3.27472C21.8765 2.64981 22.0015 1.52496 21.3766 0.650085C20.7517 -0.0998127 19.6267 -0.224795 18.7519 0.400119C18.002 1.02503 17.877 2.14988 18.5019 3.02475C19.1268 3.77465 20.3767 3.89963 21.1266 3.27472Z" fill="#05A9BD"/>
<path d="M16.7867 8.88202C18.0414 7.23466 17.7676 4.91607 16.1751 3.70318C14.5827 2.49032 12.2748 2.84251 11.0201 4.48982C9.76537 6.13715 10.0391 8.45575 11.6315 9.6686C13.2239 10.8815 15.532 10.5293 16.7867 8.88202Z" fill="#05A9BD"/>
<path d="M22.002 10.5236L16.6277 12.5233C16.1277 12.6483 15.8778 13.2732 16.0028 13.7732C16.1277 14.2731 16.7526 14.5231 17.2526 14.3981L22.6269 12.5233C23.7517 14.0232 25.7514 14.5231 27.3762 13.6482C29.126 12.6483 29.7509 10.3987 28.751 8.64884C27.7512 6.8991 25.5014 6.27418 23.7517 7.27409C22.5019 7.64901 21.877 9.02383 22.002 10.5236Z" fill="#05A9BD"/>
<path d="M9.8123 19.4946C11.2971 18.0512 11.3697 15.7176 9.97442 14.2824C8.57916 12.8471 6.24454 12.8537 4.75976 14.297C3.27498 15.7404 3.20246 18.0739 4.59764 19.5092C5.9929 20.9444 8.32759 20.9379 9.8123 19.4946Z" fill="#05A9BD"/>
<path d="M11.1282 41.0197C11.1282 40.6447 11.1282 40.2697 11.0032 39.8948L32.0003 32.2709C32.5003 32.1459 32.7503 31.5209 32.6253 31.021C32.5003 30.5211 31.8753 30.2711 31.3754 30.3961L10.3783 38.0201C9.50343 36.3953 7.75368 35.3954 5.75394 35.2704C2.75437 35.1454 0.129697 37.5201 0.00471462 40.6447C-0.120268 43.6443 2.25438 46.2689 5.37895 46.3939C8.50352 46.3939 11.0032 44.0192 11.1282 41.0197Z" fill="#05A9BD"/>
<path d="M47.7034 28.5261C48.2723 25.5428 46.3149 22.663 43.3315 22.0942C40.3481 21.5253 37.4684 23.4827 36.8996 26.4661C36.3307 29.4495 38.2881 32.3292 41.2715 32.898C44.2549 33.4669 47.1345 31.5095 47.7034 28.5261Z" fill="#05A9BD"/>
<path d="M17.9123 53.6227C19.5722 51.6816 19.3442 48.7626 17.4032 47.1028C15.4622 45.443 12.5431 45.6709 10.8833 47.6119C9.22346 49.5529 9.45145 52.472 11.3924 54.1318C13.3335 55.7917 16.2525 55.5637 17.9123 53.6227Z" fill="#05A9BD"/>
<path d="M38.6245 37.0201C37.3747 38.1449 36.8748 39.7697 36.9997 41.3944L24.1265 46.0188C23.6266 46.1438 23.3766 46.7687 23.5016 47.2686C23.6266 47.7685 24.2515 48.0185 24.7514 47.8935L37.6246 43.2692C37.7496 43.5191 37.9996 43.7691 38.1246 44.0191C39.8744 46.0188 42.9989 46.1438 44.9987 44.3941C46.9983 42.6442 47.1233 39.5197 45.3736 37.52C43.7488 35.3953 40.6243 35.1453 38.6245 37.0201Z" fill="#05A9BD"/>
<path d="M41.3744 62.2666C40.4995 62.8915 40.3745 64.1413 40.9995 64.8912C41.6244 65.6411 42.7492 65.7661 43.6241 65.1412C44.374 64.5163 44.499 63.3915 43.8741 62.5166C43.2492 61.7667 42.1243 61.6417 41.3744 62.2666Z" fill="#05A9BD"/>
<path d="M26.7507 65.0161C26.0008 65.641 25.8758 66.7658 26.5007 67.6407C27.1256 68.3906 28.2505 68.5156 29.1254 67.8907C29.8753 67.2658 30.0003 66.1409 29.3753 65.2661C28.7504 64.5162 27.5006 64.3912 26.7507 65.0161Z" fill="#05A9BD"/>
<path d="M36.8578 63.8013C38.1128 62.1542 37.8396 59.8354 36.2474 58.6221C34.6552 57.4089 32.347 57.7605 31.0918 59.4077C29.8368 61.0548 30.1101 63.3735 31.7022 64.5868C33.2944 65.8001 35.6026 65.4484 36.8578 63.8013Z" fill="#05A9BD"/>
<path d="M25.8776 57.7672L31.2519 55.7674C31.7518 55.6424 32.0018 55.0175 31.8768 54.5176C31.7518 54.0177 31.1269 53.7677 30.627 53.8927L25.2527 55.7674C24.1278 54.2676 22.1281 53.7677 20.5034 54.6426C18.7536 55.6424 18.1287 57.8922 19.1285 59.6419C20.1284 61.3917 22.3781 62.0166 24.1278 61.0167C25.3777 60.6418 26.0026 59.2669 25.8776 57.7672Z" fill="#05A9BD"/>
<path d="M43.1138 53.9933C44.5985 52.55 44.6711 50.2165 43.276 48.7811C41.8807 47.3459 39.546 47.3524 38.0613 48.7958C36.5765 50.2391 36.5039 52.5727 37.8992 54.0079C39.2944 55.4432 41.6291 55.4366 43.1138 53.9933Z" fill="#05A9BD"/>
<path d="M36.9943 20.6805C38.6542 18.7395 38.4262 15.8204 36.4852 14.1607C34.5442 12.5008 31.6251 12.7288 29.9653 14.6698C28.3055 16.6108 28.5335 19.5299 30.4745 21.1897C32.4155 22.8495 35.3346 22.6215 36.9943 20.6805Z" fill="#05A9BD"/>
</svg>
